<svg fill="none" xmlns="http://www.w3.org/2000/svg" viewBox="0 0 24 24">
  <path
    fill-rule="evenodd"
    clip-rule="evenodd"
    d="M12.0002 24C18.6276 24 24.0002 18.6274 24.0002 12C24.0002 5.3726 18.6276 1.52588e-05 12.0002 1.52588e-05C5.37279 1.52588e-05 0.000221252 5.3726 0.000221252 12C0.000221252 18.6274 5.37279 24 12.0002 24ZM12 19.0088C15.8709 19.0088 19.0088 15.8709 19.0088 12C19.0088 8.12912 15.8709 4.99115 12 4.99115C8.12912 4.99115 4.99115 8.12912 4.99115 12C4.99115 15.8709 8.12912 19.0088 12 19.0088Z"
    fill="url(#a)" />
  <path
    fill-rule="evenodd"
    clip-rule="evenodd"
    d="M12.0002 24C18.6276 24 24.0002 18.6274 24.0002 12C24.0002 5.3726 18.6276 1.52588e-05 12.0002 1.52588e-05C5.37279 1.52588e-05 0.000221252 5.3726 0.000221252 12C0.000221252 18.6274 5.37279 24 12.0002 24ZM12 19.0088C15.8709 19.0088 19.0088 15.8709 19.0088 12C19.0088 8.12912 15.8709 4.99115 12 4.99115C8.12912 4.99115 4.99115 8.12912 4.99115 12C4.99115 15.8709 8.12912 19.0088 12 19.0088Z"
    fill="url(#b)" />
  <path
    fill-rule="evenodd"
    clip-rule="evenodd"
    d="M12.0002 24C18.6276 24 24.0002 18.6274 24.0002 12C24.0002 5.3726 18.6276 1.52588e-05 12.0002 1.52588e-05C5.37279 1.52588e-05 0.000221252 5.3726 0.000221252 12C0.000221252 18.6274 5.37279 24 12.0002 24ZM12 19.0088C15.8709 19.0088 19.0088 15.8709 19.0088 12C19.0088 8.12912 15.8709 4.99115 12 4.99115C8.12912 4.99115 4.99115 8.12912 4.99115 12C4.99115 15.8709 8.12912 19.0088 12 19.0088Z"
    fill="url(#c)" />
  <path
    fill-rule="evenodd"
    clip-rule="evenodd"
    d="M12.0002 24C18.6276 24 24.0002 18.6274 24.0002 12C24.0002 5.3726 18.6276 1.52588e-05 12.0002 1.52588e-05C5.37279 1.52588e-05 0.000221252 5.3726 0.000221252 12C0.000221252 18.6274 5.37279 24 12.0002 24ZM12 19.0088C15.8709 19.0088 19.0088 15.8709 19.0088 12C19.0088 8.12912 15.8709 4.99115 12 4.99115C8.12912 4.99115 4.99115 8.12912 4.99115 12C4.99115 15.8709 8.12912 19.0088 12 19.0088Z"
    fill="url(#d)" />
  <path
    fill-rule="evenodd"
    clip-rule="evenodd"
    d="M12.0002 24C18.6276 24 24.0002 18.6274 24.0002 12C24.0002 5.3726 18.6276 1.52588e-05 12.0002 1.52588e-05C5.37279 1.52588e-05 0.000221252 5.3726 0.000221252 12C0.000221252 18.6274 5.37279 24 12.0002 24ZM12 19.0088C15.8709 19.0088 19.0088 15.8709 19.0088 12C19.0088 8.12912 15.8709 4.99115 12 4.99115C8.12912 4.99115 4.99115 8.12912 4.99115 12C4.99115 15.8709 8.12912 19.0088 12 19.0088Z"
    fill="url(#e)" />
  <path
    fill-rule="evenodd"
    clip-rule="evenodd"
    d="M12.0002 24C18.6276 24 24.0002 18.6274 24.0002 12C24.0002 5.3726 18.6276 1.52588e-05 12.0002 1.52588e-05C5.37279 1.52588e-05 0.000221252 5.3726 0.000221252 12C0.000221252 18.6274 5.37279 24 12.0002 24ZM12 19.0088C15.8709 19.0088 19.0088 15.8709 19.0088 12C19.0088 8.12912 15.8709 4.99115 12 4.99115C8.12912 4.99115 4.99115 8.12912 4.99115 12C4.99115 15.8709 8.12912 19.0088 12 19.0088Z"
    fill="url(#f)" />
  <path
    fill-rule="evenodd"
    clip-rule="evenodd"
    d="M12.0002 24C18.6276 24 24.0002 18.6274 24.0002 12C24.0002 5.3726 18.6276 1.52588e-05 12.0002 1.52588e-05C5.37279 1.52588e-05 0.000221252 5.3726 0.000221252 12C0.000221252 18.6274 5.37279 24 12.0002 24ZM12 19.0088C15.8709 19.0088 19.0088 15.8709 19.0088 12C19.0088 8.12912 15.8709 4.99115 12 4.99115C8.12912 4.99115 4.99115 8.12912 4.99115 12C4.99115 15.8709 8.12912 19.0088 12 19.0088Z"
    fill="url(#g)" />
  <path
    fill-rule="evenodd"
    clip-rule="evenodd"
    d="M12.0002 24C18.6276 24 24.0002 18.6274 24.0002 12C24.0002 5.3726 18.6276 1.52588e-05 12.0002 1.52588e-05C5.37279 1.52588e-05 0.000221252 5.3726 0.000221252 12C0.000221252 18.6274 5.37279 24 12.0002 24ZM12 19.0088C15.8709 19.0088 19.0088 15.8709 19.0088 12C19.0088 8.12912 15.8709 4.99115 12 4.99115C8.12912 4.99115 4.99115 8.12912 4.99115 12C4.99115 15.8709 8.12912 19.0088 12 19.0088Z"
    fill="url(#h)" />
  <path
    fill-rule="evenodd"
    clip-rule="evenodd"
    d="M12.0002 24C18.6276 24 24.0002 18.6274 24.0002 12C24.0002 5.3726 18.6276 1.52588e-05 12.0002 1.52588e-05C5.37279 1.52588e-05 0.000221252 5.3726 0.000221252 12C0.000221252 18.6274 5.37279 24 12.0002 24ZM12 19.0088C15.8709 19.0088 19.0088 15.8709 19.0088 12C19.0088 8.12912 15.8709 4.99115 12 4.99115C8.12912 4.99115 4.99115 8.12912 4.99115 12C4.99115 15.8709 8.12912 19.0088 12 19.0088Z"
    fill="url(#i)" />
  <path
    fill-rule="evenodd"
    clip-rule="evenodd"
    d="M12.0002 24C18.6276 24 24.0002 18.6274 24.0002 12C24.0002 5.3726 18.6276 1.52588e-05 12.0002 1.52588e-05C5.37279 1.52588e-05 0.000221252 5.3726 0.000221252 12C0.000221252 18.6274 5.37279 24 12.0002 24ZM12 19.0088C15.8709 19.0088 19.0088 15.8709 19.0088 12C19.0088 8.12912 15.8709 4.99115 12 4.99115C8.12912 4.99115 4.99115 8.12912 4.99115 12C4.99115 15.8709 8.12912 19.0088 12 19.0088Z"
    fill="url(#j)" />
  <path
    fill-rule="evenodd"
    clip-rule="evenodd"
    d="M12.0002 24C18.6276 24 24.0002 18.6274 24.0002 12C24.0002 5.3726 18.6276 1.52588e-05 12.0002 1.52588e-05C5.37279 1.52588e-05 0.000221252 5.3726 0.000221252 12C0.000221252 18.6274 5.37279 24 12.0002 24ZM12 19.0088C15.8709 19.0088 19.0088 15.8709 19.0088 12C19.0088 8.12912 15.8709 4.99115 12 4.99115C8.12912 4.99115 4.99115 8.12912 4.99115 12C4.99115 15.8709 8.12912 19.0088 12 19.0088Z"
    fill="url(#k)" />
  <path
    fill-rule="evenodd"
    clip-rule="evenodd"
    d="M12.0002 24C18.6276 24 24.0002 18.6274 24.0002 12C24.0002 5.3726 18.6276 1.52588e-05 12.0002 1.52588e-05C5.37279 1.52588e-05 0.000221252 5.3726 0.000221252 12C0.000221252 18.6274 5.37279 24 12.0002 24ZM12 19.0088C15.8709 19.0088 19.0088 15.8709 19.0088 12C19.0088 8.12912 15.8709 4.99115 12 4.99115C8.12912 4.99115 4.99115 8.12912 4.99115 12C4.99115 15.8709 8.12912 19.0088 12 19.0088Z"
    fill="url(#l)" />
  <path
    fill-rule="evenodd"
    clip-rule="evenodd"
    d="M12.0002 24C18.6276 24 24.0002 18.6274 24.0002 12C24.0002 5.3726 18.6276 1.52588e-05 12.0002 1.52588e-05C5.37279 1.52588e-05 0.000221252 5.3726 0.000221252 12C0.000221252 18.6274 5.37279 24 12.0002 24ZM12 19.0088C15.8709 19.0088 19.0088 15.8709 19.0088 12C19.0088 8.12912 15.8709 4.99115 12 4.99115C8.12912 4.99115 4.99115 8.12912 4.99115 12C4.99115 15.8709 8.12912 19.0088 12 19.0088Z"
    fill="url(#m)" />
  <defs>
    <radialGradient
      id="a"
      cx="0"
      cy="0"
      r="1"
      gradientUnits="userSpaceOnUse"
      gradientTransform="matrix(0 12 -12 0 12 12)">
      <stop offset=".389" stop-color="#E42245" />
      <stop offset="1" stop-color="#E42525" stop-opacity="0" />
    </radialGradient>
    <radialGradient
      id="b"
      cx="0"
      cy="0"
      r="1"
      gradientUnits="userSpaceOnUse"
      gradientTransform="rotate(-135.888 7.712 3.242) scale(9.6879 9.68788)">
      <stop offset=".477" stop-color="#660E9C" />
      <stop offset=".98" stop-color="#620A99" stop-opacity="0" />
    </radialGradient>
    <radialGradient
      id="c"
      cx="0"
      cy="0"
      r="1"
      gradientUnits="userSpaceOnUse"
      gradientTransform="rotate(-128.105 7.839 2.884) scale(8.86096 8.86094)">
      <stop offset=".404" stop-color="#4200FF" stop-opacity=".14" />
      <stop offset=".98" stop-color="#4200FF" stop-opacity="0" />
    </radialGradient>
    <radialGradient
      id="d"
      cx="0"
      cy="0"
      r="1"
      gradientUnits="userSpaceOnUse"
      gradientTransform="rotate(-29.214 30.111 -21.2) scale(9.24702 9.247)">
      <stop stop-color="#F3772F" />
      <stop offset=".98" stop-color="#F3752F" stop-opacity="0" />
    </radialGradient>
    <radialGradient
      id="e"
      cx="0"
      cy="0"
      r="1"
      gradientUnits="userSpaceOnUse"
      gradientTransform="matrix(7.11505 .1062 -.1062 7.11503 14.974 10.991)">
      <stop offset=".328" stop-color="#F16C31" />
      <stop offset=".96" stop-color="#FF3D00" stop-opacity="0" />
    </radialGradient>
    <radialGradient
      id="f"
      cx="0"
      cy="0"
      r="1"
      gradientUnits="userSpaceOnUse"
      gradientTransform="matrix(4.51327 6.21239 -6.21238 4.51326 15.823 12)">
      <stop stop-color="#F16C31" />
      <stop offset=".866" stop-color="#FF3D00" stop-opacity="0" />
    </radialGradient>
    <radialGradient
      id="g"
      cx="0"
      cy="0"
      r="1"
      gradientUnits="userSpaceOnUse"
      gradientTransform="rotate(105.895 .586 12.364) scale(8.33645 8.33644)">
      <stop offset=".16" stop-color="#FF00D6" />
      <stop offset=".917" stop-color="#FF1F00" stop-opacity="0" />
    </radialGradient>
    <radialGradient
      id="h"
      cx="0"
      cy="0"
      r="1"
      gradientUnits="userSpaceOnUse"
      gradientTransform="rotate(126.597 4.496 9.58) scale(6.67972 6.67971)">
      <stop offset=".25" stop-color="#FF00D6" />
      <stop offset=".917" stop-color="#FF1F00" stop-opacity="0" />
    </radialGradient>
    <radialGradient
      id="i"
      cx="0"
      cy="0"
      r="1"
      gradientUnits="userSpaceOnUse"
      gradientTransform="rotate(-21.982 33.534 -34.624) scale(6.24137 6.30593)">
      <stop stop-color="#F6A070" stop-opacity=".4" />
      <stop offset="1" stop-color="#FCAEA9" stop-opacity="0" />
    </radialGradient>
    <radialGradient
      id="j"
      cx="0"
      cy="0"
      r="1"
      gradientUnits="userSpaceOnUse"
      gradientTransform="rotate(-35.538 25.686 -17.439) scale(6.39465 6.4859)">
      <stop offset=".579" stop-color="#FFBF74" stop-opacity=".3" />
      <stop offset="1" stop-color="#FFE1BE" stop-opacity="0" />
    </radialGradient>
    <radialGradient
      id="k"
      cx="0"
      cy="0"
      r="1"
      gradientUnits="userSpaceOnUse"
      gradientTransform="matrix(4.67257 -1.53982 1.5651 4.74926 15.77 11.416)">
      <stop offset=".46" stop-color="#FF5C00" />
      <stop offset="1" stop-color="#FF7A00" stop-opacity="0" />
    </radialGradient>
    <radialGradient
      id="l"
      cx="0"
      cy="0"
      r="1"
      gradientUnits="userSpaceOnUse"
      gradientTransform="matrix(-4.93805 -4.40707 4.44294 -4.97825 11.204 11.628)">
      <stop offset=".671" stop-color="#fff" stop-opacity=".68" />
      <stop offset="1" stop-color="#fff" stop-opacity="0" />
    </radialGradient>
    <radialGradient
      id="m"
      cx="0"
      cy="0"
      r="1"
      gradientUnits="userSpaceOnUse"
      gradientTransform="rotate(-138.576 5.378 2.427) scale(2.4076 2.4272)">
      <stop offset=".102" stop-color="#fff" stop-opacity=".68" />
      <stop offset=".95" stop-color="#fff" stop-opacity="0" />
    </radialGradient>
  </defs>
</svg>
